<?xml version="1.0" encoding="UTF-8" standalone="no"?><!DOCTYPE svg PUBLIC "-//W3C//DTD SVG 1.1//EN" "http://www.w3.org/Graphics/SVG/1.1/DTD/svg11.dtd"><svg width="100%" height="100%" viewBox="0 0 2000 2000" version="1.1" xmlns="http://www.w3.org/2000/svg" xmlns:xlink="http://www.w3.org/1999/xlink" xml:space="preserve" xmlns:serif="http://www.serif.com/" style="fill-rule:evenodd;clip-rule:evenodd;stroke-linejoin:round;stroke-miterlimit:2;"><ellipse cx="1000" cy="1000" rx="960.435" ry="920.54" style="fill:#fff;"/><g id="Stethoscope"><path d="M356.811,1230.186c17.67,-144.054 128.643,-153.02 144.198,-158.931c9.551,-3.629 8.146,-7.695 8.146,-267.2c0,-164.81 -14.471,-243.028 81.347,-294.883c57.016,-30.856 228.464,-15.662 253.905,-8.717c133.194,36.359 168.692,167.606 169.282,206.19c3.368,220.366 -174.115,232.807 -180.954,256.131c-37.326,127.303 -147.027,76.633 -154.627,71.38c-116.928,-80.816 -9.373,-244.611 104.05,-181.434c53.461,29.778 35.058,79.538 71.697,63.137c187.001,-83.705 165.099,-322.833 -14.38,-384.818c-32.056,-11.071 -198.607,-7.2 -212.136,-3.234c-104.686,30.693 -87.806,150.711 -87.807,158.196c-0.033,376.387 -0.023,376.514 1.46,379.961c3.033,7.051 119.956,16.918 147.735,138.168c8.506,37.126 2.516,165.462 1.846,179.834c-2.244,48.078 -50.354,26.326 -51.256,5.015c-1.768,-41.771 1.051,-42.561 17.541,-56.778c5.21,-4.492 5.002,-5.657 3.872,-86.718c-1.958,-140.435 -152.099,-190.992 -239.345,-96.371c-9.529,10.334 -45.685,49.547 -33.708,173.713c1.48,15.342 22.959,12.169 23.846,30.174c0.246,4.991 13.63,64.156 -36.945,57.881c-22.907,-2.842 -19.021,-13.759 -17.767,-180.696Zm375.648,-321.799c-23.769,0 -43.066,19.407 -43.066,43.312c0,23.904 19.297,43.312 43.066,43.312c23.769,0 43.066,-19.407 43.066,-43.312c0,-23.904 -19.297,-43.312 -43.066,-43.312Z" style="fill:#00a47d;"/></g><g transform="matrix(0.994325,0,0,1,-36.091682,0)"><g transform="matrix(312.206421,0,0,312.206421,1788.371211,1134.537669)"></g><text x="949.316px" y="1134.538px" style="font-family:'IcoMoon-Free';font-size:312.206px;fill:#00a47d;">atient</text></g><g transform="matrix(0.994325,0,0,1,-37.027013,0)"><g transform="matrix(312.206421,0,0,312.206421,1428.424019,1451.884017)"></g><text x="784.498px" y="1451.884px" style="font-family:'IcoMoon-Free';font-size:312.206px;fill:#00a47d;">ssist</text></g></svg>